<svg width="329" height="88" fill="none" xmlns="http://www.w3.org/2000/svg"><path d="M4.9 14.89c-.35-.07-1.68.07-2.03.42l-1.12-.91c.28-3.29 10.85-2.8 21.28-2.8l10.08 26.11 1.26 3.22h.42l1.4-3.22 10.36-25.62c6.72-.42 12.95-.49 18.06-.49.56 16.87.56 41.44 0 58.31l-14.21.28V43.66l.07-7.21-.35-.07-2.1 5.18-9.45 22.05h-7.42L21.7 41.56l-1.89-4.9-.35.07.07 6.93c0 5.88-.14 18.48-.42 26.25l-14.21.28v-55.3Zm69.59 0c-.35-.07-1.68.07-2.03.42l-1.12-.91c.28-3.29 10.71-2.8 18.62-2.8.56 16.87.56 41.44 0 58.31l-15.47.28v-55.3Zm57.701 55.09-9.03-17.57h-7.49c-.07 6.16-.21 12.11-.35 17.5h-15.47V14.89c-.35-.07-1.68.07-2.03.42l-1.12-.91c.28-3.22 10.29-2.8 18.13-2.8h9.66c13.37 0 22.61 8.05 22.61 21.49 0 6.58-2.94 12.81-9.38 16.31l11.55 20.58h-17.08Zm-16.59-45.01c.07 4.62.14 9.52.14 14.42h7.28c5.46 0 7.77-2.73 7.77-6.93 0-4.34-2.73-7.49-8.19-7.49h-7Zm71.961 45.01-9.03-17.57h-7.49c-.07 6.16-.21 12.11-.35 17.5h-15.47V14.89c-.35-.07-1.68.07-2.03.42l-1.12-.91c.28-3.22 10.29-2.8 18.13-2.8h9.66c13.37 0 22.61 8.05 22.61 21.49 0 6.58-2.94 12.81-9.38 16.31l11.55 20.58h-17.08Zm-16.59-45.01c.07 4.62.14 9.52.14 14.42h7.28c5.46 0 7.77-2.73 7.77-6.93 0-4.34-2.73-7.49-8.19-7.49h-7Zm65.871 46.55c-18.76 0-28-12.25-28-27.58 0-12.6 6.02-22.75 13.93-28.42.56-2.31 1.82-4.34 3.64-5.95l1.75.49c-.14.77-.07 1.61.07 2.38 2.87-1.12 5.74-1.75 8.61-1.75 2.8 0 5.74.63 8.54 1.89.21-.84.28-1.75.14-2.52l1.75-.49c2.31 1.75 3.57 3.92 3.99 6.44 7.63 5.74 13.58 15.68 13.58 27.93 0 15.33-9.31 27.58-28 27.58Zm-12.04-28.07c0 7.77 3.71 14.14 12.04 14.14 8.26 0 12.04-6.37 12.04-14.14 0-10.22-6.16-18.13-12.04-18.13-6.02 0-12.04 7.91-12.04 18.13Zm80.406 26.53-9.03-17.57h-7.49c-.07 6.16-.21 12.11-.35 17.5h-15.47V14.89c-.35-.07-1.68.07-2.03.42l-1.12-.91c.28-3.22 10.29-2.8 18.13-2.8h9.66c13.37 0 22.61 8.05 22.61 21.49 0 6.58-2.94 12.81-9.38 16.31l11.55 20.58h-17.08Zm-16.59-45.01c.07 4.62.14 9.52.14 14.42h7.28c5.46 0 7.77-2.73 7.77-6.93 0-4.34-2.73-7.49-8.19-7.49h-7Z" fill="#272727"/><path d="M9.9 14.89h1v-.82l-.804-.16-.196.98Zm-2.03.42-.63.776.7.569.637-.638-.707-.707Zm-1.12-.91-.996-.085-.045.527.41.334.631-.776Zm21.28-2.8.933-.36-.247-.64h-.686v1Zm10.08 26.11-.933.36.002.004.931-.364Zm1.26 3.22-.931.364.248.636h.683v-1Zm.42 0v1h.656l.261-.601-.917-.399Zm1.4-3.22.917.399.005-.012.005-.012-.927-.375Zm10.36-25.62-.062-.998-.629.04-.236.583.927.375Zm18.06-.49 1-.033-.033-.967h-.967v1Zm0 58.31.02 1 .948-.019.031-.948-.999-.033Zm-14.21.28h-1v1.02l1.02-.02-.02-1Zm0-26.53-1-.01v.01h1Zm.07-7.21 1 .01.008-.828-.812-.163-.196.981Zm-.35-.07.196-.98-.812-.163-.31.767.926.376Zm-2.1 5.18.92.394.003-.01.004-.008-.927-.376Zm-9.45 22.05v1h.66l.26-.606-.92-.394Zm-7.42 0-.92.394.26.606h.66v-1ZM26.7 41.56l-.933.36.007.017.007.017.919-.394Zm-1.89-4.9.933-.36-.303-.786-.826.165.196.981Zm-.35.07-.196-.98-.812.162.008.828 1-.01Zm.07 6.93h1v-.01l-1 .01Zm-.42 26.25.02 1 .945-.019.034-.945-.999-.036Zm-14.21.28h-1v1.02l1.02-.02-.02-1Zm.196-56.28a2.843 2.843 0 0 0-.66-.032 6.3 6.3 0 0 0-.715.078c-.245.04-.512.1-.759.184-.216.074-.545.208-.8.463l1.415 1.414c-.08.08-.11.065.032.016.112-.038.265-.075.44-.104.173-.029.344-.046.484-.053.166-.008.211.003.17-.005l.393-1.962Zm-1.595.624-1.12-.91-1.262 1.552 1.12.91 1.262-1.552Zm-.755-.05c.016-.185.183-.572 1.31-.965 1.064-.372 2.629-.612 4.6-.755 3.933-.286 9.117-.164 14.374-.164v-2c-5.172 0-10.49-.123-14.519.169-2.01.146-3.791.4-5.114.861-1.26.44-2.52 1.226-2.643 2.685l1.992.17Zm19.351-2.524 10.08 26.11 1.866-.72-10.08-26.11-1.866.72ZM37.18 38.074l1.26 3.22 1.862-.728-1.26-3.22-1.862.728Zm2.191 3.856h.42v-2h-.42v2Zm1.337-.601 1.4-3.22-1.834-.798-1.4 3.22 1.834.798Zm1.41-3.244 10.36-25.62-1.854-.75-10.36 25.62 1.854.75Zm9.495-24.997c6.69-.418 12.896-.488 17.998-.488v-2c-5.118 0-11.372.07-18.122.492l.124 1.996Zm16.999-1.455c.559 16.848.559 41.396 0 58.244l1.998.066c.561-16.892.561-41.484 0-58.376l-1.998.066Zm.98 57.277-14.21.28.039 2 14.21-.28-.04-2ZM56.4 70.19V43.66h-2v26.53h2Zm0-26.52.07-7.21-2-.02-.07 7.21 2 .02Zm-.734-8.2-.35-.07-.392 1.96.35.07.392-1.96Zm-1.473.534-2.1 5.18 1.854.752 2.1-5.18-1.854-.752Zm-2.092 5.162-9.45 22.05 1.838.788 9.45-22.05-1.838-.788ZM43.57 62.61h-7.42v2h7.42v-2Zm-6.5.606-9.45-22.05-1.84.788 9.45 22.05 1.84-.788ZM27.632 41.2l-1.89-4.9-1.866.72 1.89 4.9 1.866-.72Zm-3.02-5.52-.35.07.393 1.96.35-.07-.392-1.96Zm-1.153 1.06.07 6.93 2-.02-.07-6.93-2 .02Zm.07 6.92c0 5.873-.14 18.46-.42 26.214l2 .072c.28-7.786.42-20.4.42-26.286h-2Zm.56 25.25-14.21.28.04 2 14.21-.28-.04-2ZM10.9 70.19v-55.3h-2v55.3h2Zm68.59-55.3h1v-.82l-.804-.16-.196.98Zm-2.03.42-.63.776.7.569.637-.638-.707-.707Zm-1.12-.91-.997-.085-.044.527.41.334.63-.776Zm18.62-2.8 1-.033-.033-.967h-.967v1Zm0 58.31.018 1 .95-.017.031-.95-1-.033Zm-15.47.28h-1v1.018l1.018-.018-.018-1Zm.196-56.28a2.843 2.843 0 0 0-.66-.032c-.22.01-.468.037-.716.078-.244.04-.51.1-.758.184-.216.074-.545.208-.8.463l1.415 1.414c-.08.08-.111.065.032.016.112-.038.265-.075.44-.104.173-.029.344-.046.484-.053.166-.008.21.003.17-.005l.393-1.962Zm-1.596.624-1.12-.91-1.26 1.552 1.12.91 1.26-1.552Zm-.754-.05c.017-.199.195-.58 1.262-.97 1.01-.369 2.476-.608 4.27-.75 3.579-.285 8.09-.164 12.092-.164v-2c-3.91 0-8.567-.123-12.25.17-1.838.146-3.526.4-4.798.865-1.214.444-2.446 1.235-2.569 2.68l1.993.17Zm16.624-2.85c.56 16.847.56 41.395 0 58.243l2 .066c.56-16.892.56-41.484 0-58.376l-2 .066Zm.982 57.276-15.47.28.036 2 15.47-.28-.036-2ZM80.49 70.19v-55.3h-2v55.3h2Zm56.701-.21-.889.457.279.543h.61v-1Zm-9.03-17.57.89-.457-.279-.543h-.611v1Zm-7.49 0v-1h-.989l-.011.989 1 .011Zm-.35 17.5v1h.975l.025-.974-1-.026Zm-15.47 0h-1v1h1v-1Zm0-55.02h1v-.82l-.804-.16-.196.98Zm-2.03.42-.63.776.7.569.637-.638-.707-.707Zm-1.12-.91-.996-.087-.046.529.412.334.63-.776Zm41.02 35-.477-.879-.891.484.496.884.872-.489Zm11.55 20.58v1h1.708l-.836-1.49-.872.49Zm-33.67-45.01v-1h-1.015l.015 1.015 1-.015Zm.14 14.42h-1v1h1v-1Zm17.34 30.133-9.03-17.57-1.779.914 9.03 17.57 1.779-.914Zm-9.92-18.113h-7.49v2h7.49v-2Zm-8.49.989c-.07 6.152-.21 12.097-.349 17.485l1.999.052c.14-5.392.28-11.347.35-17.515l-2-.022Zm.65 16.511h-15.47v2h15.47v-2Zm-14.47 1V14.89h-2v55.02h2Zm-.804-56a2.839 2.839 0 0 0-.66-.032c-.219.01-.468.037-.715.078-.245.04-.511.1-.758.184-.216.074-.546.208-.8.463l1.414 1.414c-.079.08-.111.065.032.016a2.89 2.89 0 0 1 .441-.104c.172-.029.344-.046.483-.053.166-.008.211.003.171-.005l.392-1.962Zm-1.595.624-1.12-.91-1.261 1.552 1.12.91 1.261-1.552Zm-.755-.047c.017-.195.186-.564 1.204-.947.968-.363 2.379-.604 4.114-.751 3.462-.293 7.854-.189 11.816-.189v-2c-3.877 0-8.411-.106-11.984.196-1.782.15-3.416.409-4.649.872-1.182.444-2.37 1.23-2.493 2.645l1.992.174Zm17.134-1.887h9.66v-2h-9.66v2Zm9.66 0c6.487 0 11.879 1.95 15.639 5.438 3.751 3.48 5.971 8.572 5.971 15.052h2c0-6.96-2.399-12.612-6.611-16.518-4.202-3.898-10.116-5.972-16.999-5.972v2Zm21.61 20.49c0 6.271-2.787 12.132-8.857 15.431l.955 1.758c6.81-3.701 9.902-10.3 9.902-17.189h-2Zm-9.252 16.8 11.55 20.58 1.744-.98-11.55-20.58-1.744.98Zm12.422 19.09h-17.08v2h17.08v-2Zm-34.67-43.995c.07 4.62.14 9.514.14 14.405h2c0-4.909-.07-9.815-.14-14.435l-2 .03Zm1.14 15.405h7.28v-2h-7.28v2Zm7.28 0c2.885 0 5.115-.722 6.625-2.168 1.515-1.453 2.145-3.484 2.145-5.762h-2c0 1.922-.525 3.356-1.529 4.318-1.011.969-2.666 1.612-5.241 1.612v2Zm8.77-7.93c0-2.381-.753-4.533-2.349-6.089-1.596-1.555-3.919-2.401-6.841-2.401v2c2.538 0 4.311.729 5.445 1.834 1.133 1.104 1.745 2.697 1.745 4.656h2Zm-9.19-8.49h-7v2h7v-2Zm64.961 46.01-.889.457.279.543h.61v-1Zm-9.03-17.57.89-.457-.279-.543h-.611v1Zm-7.49 0v-1h-.988l-.012.989 1 .011Zm-.35 17.5v1h.975l.025-.974-1-.026Zm-15.47 0h-1v1h1v-1Zm0-55.02h1v-.82l-.804-.16-.196.98Zm-2.03.42-.63.776.7.569.637-.638-.707-.707Zm-1.12-.91-.996-.087-.046.529.412.334.63-.776Zm41.02 35-.477-.879-.891.484.496.884.872-.489Zm11.55 20.58v1h1.708l-.836-1.49-.872.49Zm-33.67-45.01v-1h-1.015l.015 1.015 1-.015Zm.14 14.42h-1v1h1v-1Zm17.34 30.133-9.03-17.57-1.779.914 9.03 17.57 1.779-.914Zm-9.92-18.113h-7.49v2h7.49v-2Zm-8.49.989a1194.87 1194.87 0 0 1-.349 17.485l1.999.052c.14-5.392.28-11.347.35-17.515l-2-.022Zm.65 16.511h-15.47v2h15.47v-2Zm-14.47 1V14.89h-2v55.02h2Zm-.804-56a2.839 2.839 0 0 0-.66-.032c-.219.01-.468.037-.715.078-.245.04-.511.1-.758.184-.216.074-.545.208-.8.463l1.414 1.414c-.079.08-.111.065.032.016a2.89 2.89 0 0 1 .441-.104c.172-.029.344-.046.483-.053.166-.008.211.003.171-.005l.392-1.962Zm-1.595.624-1.12-.91-1.261 1.552 1.12.91 1.261-1.552Zm-.754-.047c.016-.195.185-.564 1.203-.947.968-.363 2.379-.604 4.115-.751 3.461-.293 7.853-.189 11.815-.189v-2c-3.877 0-8.411-.106-11.984.196-1.782.15-3.416.409-4.649.872-1.182.444-2.37 1.23-2.493 2.645l1.993.174Zm17.133-1.887h9.66v-2h-9.66v2Zm9.66 0c6.487 0 11.879 1.95 15.639 5.438 3.751 3.48 5.971 8.572 5.971 15.052h2c0-6.96-2.399-12.612-6.611-16.518-4.202-3.898-10.116-5.972-16.999-5.972v2Zm21.61 20.49c0 6.271-2.787 12.132-8.857 15.431l.955 1.758c6.81-3.701 9.902-10.3 9.902-17.189h-2Zm-9.252 16.8 11.55 20.58 1.744-.98-11.55-20.58-1.744.98Zm12.422 19.09h-17.08v2h17.08v-2Zm-34.67-43.995c.07 4.62.14 9.514.14 14.405h2c0-4.909-.07-9.815-.14-14.435l-2 .03Zm1.14 15.405h7.28v-2h-7.28v2Zm7.28 0c2.885 0 5.115-.722 6.625-2.168 1.516-1.453 2.145-3.484 2.145-5.762h-2c0 1.922-.525 3.356-1.529 4.318-1.011.969-2.665 1.612-5.241 1.612v2Zm8.77-7.93c0-2.381-.753-4.533-2.349-6.089-1.596-1.555-3.919-2.401-6.841-2.401v2c2.538 0 4.311.729 5.445 1.834 1.133 1.104 1.745 2.697 1.745 4.656h2Zm-9.19-8.49h-7v2h7v-2Zm44.801-8.45.583.813.302-.217.087-.36-.972-.236Zm3.64-5.95.27-.963-.524-.147-.408.361.662.749Zm1.75.49.984.179.163-.896-.877-.246-.27.963Zm.07 2.38-.984.179.218 1.194 1.13-.441-.364-.932Zm17.15.14-.41.912 1.09.49.291-1.16-.971-.242Zm.14-2.52-.269-.963-.877.246.162.896.984-.179Zm1.75-.49.604-.797-.395-.3-.478.134.269.963Zm3.99 6.44-.986.164.066.395.319.24.601-.799Zm-14.42 54.51c-9.152 0-15.869-2.98-20.304-7.724-4.446-4.755-6.696-11.387-6.696-18.856h-2c0 7.86 2.371 15.02 7.235 20.222 4.875 5.214 12.157 8.358 21.765 8.358v-2Zm-27-26.58c0-12.273 5.861-22.122 13.513-27.607l-1.165-1.626c-8.169 5.855-14.348 16.306-14.348 29.233h2Zm13.902-28.184c.509-2.1 1.655-3.954 3.331-5.437l-1.325-1.498c-1.964 1.738-3.339 3.943-3.949 6.463l1.943.472Zm2.399-5.223 1.75.49.539-1.926-1.75-.49-.539 1.926Zm1.035-.652c-.17.94-.079 1.914.07 2.738l1.968-.358c-.13-.716-.179-1.421-.07-2.022l-1.968-.358Zm1.418 3.49c2.778-1.084 5.524-1.681 8.246-1.681v-2c-3.018 0-6.012.663-8.973 1.818l.727 1.864Zm8.246-1.681c2.653 0 5.453.597 8.13 1.802l.821-1.824c-2.923-1.315-6.003-1.978-8.951-1.978v2Zm9.511 1.133c.234-.938.325-1.996.153-2.942l-1.968.358c.109.594.06 1.356-.126 2.098l1.941.486Zm-.561-1.8 1.75-.49-.539-1.926-1.75.49.539 1.926Zm.877-.656c2.11 1.6 3.23 3.545 3.607 5.807l1.973-.328c-.463-2.778-1.863-5.172-4.373-7.073l-1.207 1.594Zm3.992 6.442c7.395 5.563 13.181 15.215 13.181 27.131h2c0-12.584-6.113-22.812-13.978-28.73l-1.203 1.6Zm13.181 27.131c0 7.467-2.265 14.099-6.721 18.855-4.444 4.745-11.163 7.725-20.279 7.725v2c9.574 0 16.856-3.145 21.739-8.358 4.872-5.201 7.261-12.36 7.261-20.222h-2Zm-40.04-.49c0 4.027.96 7.801 3.103 10.593 2.173 2.829 5.486 4.547 9.937 4.547v-2c-3.878 0-6.585-1.467-8.35-3.765-1.794-2.336-2.69-5.632-2.69-9.375h-2Zm13.04 15.14c4.419 0 7.73-1.72 9.91-4.546 2.152-2.79 3.13-6.563 3.13-10.594h-2c0 3.74-.911 7.036-2.714 9.373-1.775 2.302-4.484 3.767-8.326 3.767v2Zm13.04-15.14c0-5.305-1.597-10.04-3.995-13.47-2.378-3.402-5.654-5.66-9.045-5.66v2c2.49 0 5.234 1.697 7.406 4.805 2.152 3.08 3.634 7.41 3.634 12.325h2Zm-13.04-19.13c-3.456 0-6.734 2.253-9.099 5.663-2.381 3.433-3.941 8.167-3.941 13.467h2c0-4.92 1.451-9.251 3.585-12.328 2.15-3.1 4.892-4.802 7.455-4.802v-2Zm68.366 45.66-.89.457.279.543h.611v-1Zm-9.03-17.57.889-.457-.279-.543h-.61v1Zm-7.49 0v-1h-.989l-.011.989 1 .011Zm-.35 17.5v1h.974l.025-.974-.999-.026Zm-15.47 0h-1v1h1v-1Zm0-55.02h1v-.82l-.804-.16-.196.98Zm-2.03.42-.631.776.7.569.638-.638-.707-.707Zm-1.12-.91-.996-.087-.046.529.411.334.631-.776Zm41.02 35-.478-.879-.89.484.496.884.872-.489Zm11.55 20.58v1h1.708l-.836-1.49-.872.49Zm-33.67-45.01v-1h-1.016l.016 1.015 1-.015Zm.14 14.42h-1v1h1v-1Zm17.339 30.133-9.03-17.57-1.779.914 9.03 17.57 1.779-.914Zm-9.919-18.113h-7.49v2h7.49v-2Zm-8.49.989c-.07 6.152-.21 12.097-.35 17.485l1.999.052c.14-5.392.281-11.347.351-17.515l-2-.022Zm.65 16.511h-15.47v2h15.47v-2Zm-14.47 1V14.89h-2v55.02h2Zm-.804-56a2.845 2.845 0 0 0-.661-.032 6.32 6.32 0 0 0-.715.078c-.244.04-.511.1-.758.184-.216.074-.545.208-.799.463l1.414 1.414c-.08.08-.111.065.032.016.111-.038.265-.075.44-.104.173-.029.344-.046.484-.053.165-.008.211.003.171-.005l.392-1.962Zm-1.596.624-1.12-.91-1.261 1.552 1.12.91 1.261-1.552Zm-.754-.047c.017-.195.185-.564 1.204-.947.968-.363 2.378-.604 4.114-.751 3.462-.293 7.853-.189 11.816-.189v-2c-3.878 0-8.411-.106-11.985.196-1.781.15-3.416.409-4.649.872-1.181.444-2.369 1.23-2.492 2.645l1.992.174Zm17.134-1.887h9.66v-2h-9.66v2Zm9.66 0c6.487 0 11.878 1.95 15.638 5.438 3.751 3.48 5.972 8.572 5.972 15.052h2c0-6.96-2.4-12.612-6.611-16.518-4.203-3.898-10.116-5.972-16.999-5.972v2Zm21.61 20.49c0 6.271-2.788 12.132-8.858 15.431l.955 1.758c6.81-3.701 9.903-10.3 9.903-17.189h-2Zm-9.252 16.8 11.55 20.58 1.744-.98-11.55-20.58-1.744.98Zm12.422 19.09h-17.08v2h17.08v-2Zm-34.67-43.995c.07 4.62.14 9.514.14 14.405h2c0-4.909-.07-9.815-.14-14.435l-2 .03Zm1.14 15.405h7.28v-2h-7.28v2Zm7.28 0c2.885 0 5.115-.722 6.624-2.168 1.516-1.453 2.146-3.484 2.146-5.762h-2c0 1.922-.526 3.356-1.53 4.318-1.01.969-2.665 1.612-5.24 1.612v2Zm8.77-7.93c0-2.381-.753-4.533-2.35-6.089-1.596-1.555-3.918-2.401-6.84-2.401v2c2.538 0 4.31.729 5.444 1.834 1.134 1.104 1.746 2.697 1.746 4.656h2Zm-9.19-8.49h-7v2h7v-2Z" fill="#272727"/></svg>