<svg width="121" height="31" viewBox="0 0 121 31" fill="none" xmlns="http://www.w3.org/2000/svg">
<path d="M1.75 5.175C1.625 5.15 1.15 5.2 1.025 5.325L0.625 5C0.725 3.825 4.5 4 8.225 4L11.825 13.325L12.275 14.475H12.425L12.925 13.325L16.625 4.175C19.025 4.025 21.25 4 23.075 4C23.275 10.025 23.275 18.8 23.075 24.825L18 24.925V15.45L18.025 12.875L17.9 12.85L17.15 14.7L13.775 22.575H11.125L7.75 14.7L7.075 12.95L6.95 12.975L6.975 15.45C6.975 17.55 6.925 22.05 6.825 24.825L1.75 24.925V5.175ZM26.6035 5.175C26.4785 5.15 26.0035 5.2 25.8785 5.325L25.4785 5C25.5785 3.825 29.3035 4 32.1285 4C32.3285 10.025 32.3285 18.8 32.1285 24.825L26.6035 24.925V5.175ZM47.2111 24.85L43.9861 18.575H41.3111C41.2861 20.775 41.2361 22.9 41.1861 24.825H35.6611V5.175C35.5361 5.15 35.0611 5.2 34.9361 5.325L34.5361 5C34.6361 3.85 38.2111 4 41.0111 4H44.4611C49.2361 4 52.5361 6.875 52.5361 11.675C52.5361 14.025 51.4861 16.25 49.1861 17.5L53.3111 24.85H47.2111ZM41.2861 8.775C41.3111 10.425 41.3361 12.175 41.3361 13.925H43.9361C45.8861 13.925 46.7111 12.95 46.7111 11.45C46.7111 9.9 45.7361 8.775 43.7861 8.775H41.2861ZM66.9865 24.85L63.7615 18.575H61.0865C61.0615 20.775 61.0115 22.9 60.9615 24.825H55.4365V5.175C55.3115 5.15 54.8365 5.2 54.7115 5.325L54.3115 5C54.4115 3.85 57.9865 4 60.7865 4H64.2365C69.0115 4 72.3115 6.875 72.3115 11.675C72.3115 14.025 71.2615 16.25 68.9615 17.5L73.0865 24.85H66.9865ZM61.0615 8.775C61.0865 10.425 61.1115 12.175 61.1115 13.925H63.7115C65.6615 13.925 66.4865 12.95 66.4865 11.45C66.4865 9.9 65.5115 8.775 63.5615 8.775H61.0615ZM84.5869 25.4C77.8869 25.4 74.5869 21.025 74.5869 15.55C74.5869 11.05 76.7369 7.425 79.5619 5.4C79.7619 4.575 80.2119 3.85 80.8619 3.275L81.4869 3.45C81.4369 3.725 81.4619 4.025 81.5119 4.3C82.5369 3.9 83.5619 3.675 84.5869 3.675C85.5869 3.675 86.6369 3.9 87.6369 4.35C87.7119 4.05 87.7369 3.725 87.6869 3.45L88.3119 3.275C89.1369 3.9 89.5869 4.675 89.7369 5.575C92.4619 7.625 94.5869 11.175 94.5869 15.55C94.5869 21.025 91.2619 25.4 84.5869 25.4ZM80.2869 15.375C80.2869 18.15 81.6119 20.425 84.5869 20.425C87.5369 20.425 88.8869 18.15 88.8869 15.375C88.8869 11.725 86.6869 8.9 84.5869 8.9C82.4369 8.9 80.2869 11.725 80.2869 15.375ZM109.003 24.85L105.778 18.575H103.103C103.078 20.775 103.028 22.9 102.978 24.825H97.4531V5.175C97.3281 5.15 96.8531 5.2 96.7281 5.325L96.3281 5C96.4281 3.85 100.003 4 102.803 4H106.253C111.028 4 114.328 6.875 114.328 11.675C114.328 14.025 113.278 16.25 110.978 17.5L115.103 24.85H109.003ZM103.078 8.775C103.103 10.425 103.128 12.175 103.128 13.925H105.728C107.678 13.925 108.503 12.95 108.503 11.45C108.503 9.9 107.528 8.775 105.578 8.775H103.078Z" fill="#272727"/>
<path d="M6.75 5.175H7.75V4.35519L6.94611 4.19442L6.75 5.175ZM6.025 5.325L5.39441 6.10111L6.09438 6.66984L6.73211 6.03211L6.025 5.325ZM5.625 5L4.6286 4.9152L4.58373 5.44244L4.99441 5.77611L5.625 5ZM13.225 4L14.1579 3.63985L13.9109 3H13.225V4ZM16.825 13.325L15.8921 13.6852L15.8938 13.6894L16.825 13.325ZM17.275 14.475L16.3438 14.8394L16.5925 15.475H17.275V14.475ZM17.425 14.475V15.475H18.0806L18.3421 14.8737L17.425 14.475ZM17.925 13.325L18.8421 13.7237L18.8472 13.7119L18.8521 13.6999L17.925 13.325ZM21.625 4.175L21.5626 3.17695L20.934 3.21623L20.6979 3.80012L21.625 4.175ZM28.075 4L29.0745 3.96682L29.0424 3H28.075V4ZM28.075 24.825L28.0947 25.8248L29.043 25.8061L29.0745 24.8582L28.075 24.825ZM23 24.925H22V25.9449L23.0197 25.9248L23 24.925ZM23 15.45L22 15.4403V15.45H23ZM23.025 12.875L24.025 12.8847L24.033 12.0568L23.2211 11.8944L23.025 12.875ZM22.9 12.85L23.0961 11.8694L22.2843 11.7071L21.9733 12.4743L22.9 12.85ZM22.15 14.7L23.0691 15.0939L23.073 15.0848L23.0767 15.0757L22.15 14.7ZM18.775 22.575V23.575H19.4344L19.6941 22.9689L18.775 22.575ZM16.125 22.575L15.2059 22.9689L15.4656 23.575H16.125V22.575ZM12.75 14.7L11.817 15.0599L11.8236 15.077L11.8309 15.0939L12.75 14.7ZM12.075 12.95L13.008 12.5901L12.7049 11.8042L11.8789 11.9694L12.075 12.95ZM11.95 12.975L11.7539 11.9944L10.9417 12.1569L10.9501 12.9851L11.95 12.975ZM11.975 15.45L12.9751 15.45L12.9749 15.4399L11.975 15.45ZM11.825 24.825L11.8447 25.8248L12.7903 25.8062L12.8244 24.861L11.825 24.825ZM6.75 24.925H5.75V25.9449L6.7697 25.9248L6.75 24.925ZM6.94611 4.19442C6.78724 4.16264 6.63065 4.1677 6.55284 4.1715C6.44902 4.17656 6.3354 4.18864 6.2231 4.20735C6.11361 4.2256 5.98188 4.25403 5.85029 4.29896C5.74947 4.33339 5.51608 4.41971 5.31789 4.61789L6.73211 6.03211C6.65345 6.11076 6.5818 6.1512 6.55322 6.16626C6.5203 6.18361 6.49894 6.19086 6.49658 6.19166C6.49312 6.19284 6.51139 6.18689 6.5519 6.18014C6.5896 6.17386 6.62598 6.17031 6.65028 6.16912C6.66228 6.16854 6.66427 6.16888 6.65709 6.16866C6.65323 6.16854 6.64344 6.16816 6.62893 6.16679C6.61571 6.16555 6.5891 6.16262 6.55389 6.15558L6.94611 4.19442ZM6.65559 4.54888L6.25559 4.22388L4.99441 5.77611L5.39441 6.10111L6.65559 4.54888ZM6.6214 5.0848C6.59221 5.42774 6.30074 5.41779 6.66055 5.29213C6.95711 5.18857 7.44605 5.10694 8.13796 5.05675C9.51177 4.95712 11.32 5 13.225 5V3C11.405 3 9.46323 2.95538 7.99329 3.06199C7.26333 3.11494 6.55695 3.20987 6.00116 3.40396C5.50864 3.57596 4.70779 3.98476 4.6286 4.9152L6.6214 5.0848ZM12.2921 4.36015L15.8921 13.6852L17.7579 12.9648L14.1579 3.63985L12.2921 4.36015ZM15.8938 13.6894L16.3438 14.8394L18.2062 14.1106L17.7562 12.9606L15.8938 13.6894ZM17.275 15.475H17.425V13.475H17.275V15.475ZM18.3421 14.8737L18.8421 13.7237L17.0079 12.9263L16.5079 14.0763L18.3421 14.8737ZM18.8521 13.6999L22.5521 4.54988L20.6979 3.80012L16.9979 12.9501L18.8521 13.6999ZM21.6874 5.17305C24.0572 5.02494 26.2585 5 28.075 5V3C26.2415 3 23.9928 3.02506 21.5626 3.17695L21.6874 5.17305ZM27.0756 4.03318C27.2748 10.0361 27.2748 18.7889 27.0756 24.7918L29.0745 24.8582C29.2752 18.8111 29.2752 10.0139 29.0745 3.96682L27.0756 4.03318ZM28.0553 23.8252L22.9803 23.9252L23.0197 25.9248L28.0947 25.8248L28.0553 23.8252ZM24 24.925V15.45H22V24.925H24ZM24 15.4597L24.025 12.8847L22.025 12.8653L22 15.4403L24 15.4597ZM23.2211 11.8944L23.0961 11.8694L22.7039 13.8306L22.8289 13.8556L23.2211 11.8944ZM21.9733 12.4743L21.2233 14.3243L23.0767 15.0757L23.8267 13.2257L21.9733 12.4743ZM21.2309 14.3061L17.8559 22.1811L19.6941 22.9689L23.0691 15.0939L21.2309 14.3061ZM18.775 21.575H16.125V23.575H18.775V21.575ZM17.0441 22.1811L13.6691 14.3061L11.8309 15.0939L15.2059 22.9689L17.0441 22.1811ZM13.683 14.3401L13.008 12.5901L11.142 13.3099L11.817 15.0599L13.683 14.3401ZM11.8789 11.9694L11.7539 11.9944L12.1461 13.9556L12.2711 13.9306L11.8789 11.9694ZM10.9501 12.9851L10.9751 15.4601L12.9749 15.4399L12.9499 12.9649L10.9501 12.9851ZM10.975 15.45C10.975 17.5433 10.9251 22.0303 10.8256 24.789L12.8244 24.861C12.9249 22.0697 12.975 17.5567 12.975 15.45H10.975ZM11.8053 23.8252L6.7303 23.9252L6.7697 25.9248L11.8447 25.8248L11.8053 23.8252ZM7.75 24.925V5.175H5.75V24.925H7.75ZM31.6035 5.175H32.6035V4.35519L31.7996 4.19442L31.6035 5.175ZM30.8785 5.325L30.2479 6.10111L30.9479 6.66984L31.5856 6.03211L30.8785 5.325ZM30.4785 5L29.4821 4.9152L29.4372 5.44244L29.8479 5.77611L30.4785 5ZM37.1285 4L38.128 3.96682L38.0959 3H37.1285V4ZM37.1285 24.825L37.1466 25.8248L38.0964 25.8076L38.128 24.8582L37.1285 24.825ZM31.6035 24.925H30.6035V25.9433L31.6216 25.9248L31.6035 24.925ZM31.7996 4.19442C31.6408 4.16264 31.4842 4.1677 31.4064 4.1715C31.3025 4.17656 31.1889 4.18864 31.0766 4.20735C30.9671 4.2256 30.8354 4.25403 30.7038 4.29896C30.603 4.33339 30.3696 4.41971 30.1714 4.61789L31.5856 6.03211C31.507 6.11076 31.4353 6.1512 31.4067 6.16626C31.3738 6.18361 31.3525 6.19086 31.3501 6.19166C31.3466 6.19284 31.3649 6.18689 31.4054 6.18014C31.4431 6.17386 31.4795 6.17031 31.5038 6.16912C31.5158 6.16854 31.5178 6.16888 31.5106 6.16866C31.5067 6.16854 31.497 6.16816 31.4824 6.16679C31.4692 6.16555 31.4426 6.16262 31.4074 6.15558L31.7996 4.19442ZM31.5091 4.54888L31.1091 4.22388L29.8479 5.77611L30.2479 6.10111L31.5091 4.54888ZM31.4749 5.0848C31.4469 5.41416 31.1714 5.40943 31.5056 5.28734C31.7817 5.18649 32.2345 5.10604 32.8609 5.05623C34.1051 4.95729 35.6699 5 37.1285 5V3C35.7621 3 34.0519 2.95521 32.7024 3.06252C32.0319 3.11584 31.3582 3.21194 30.8194 3.40875C30.3388 3.58432 29.5601 3.99834 29.4821 4.9152L31.4749 5.0848ZM36.1291 4.03318C36.3283 10.0361 36.3283 18.7889 36.1291 24.7918L38.128 24.8582C38.3287 18.8111 38.3287 10.0139 38.128 3.96682L36.1291 4.03318ZM37.1104 23.8252L31.5854 23.9252L31.6216 25.9248L37.1466 25.8248L37.1104 23.8252ZM32.6035 24.925V5.175H30.6035V24.925H32.6035ZM52.2111 24.85L51.3217 25.3071L51.6007 25.85H52.2111V24.85ZM48.9861 18.575L49.8755 18.1179L49.5965 17.575H48.9861V18.575ZM46.3111 18.575V17.575H45.3224L45.3112 18.5636L46.3111 18.575ZM46.1861 24.825V25.825H47.1605L47.1858 24.851L46.1861 24.825ZM40.6611 24.825H39.6611V25.825H40.6611V24.825ZM40.6611 5.175H41.6611V4.35519L40.8572 4.19442L40.6611 5.175ZM39.9361 5.325L39.3055 6.10111L40.0055 6.66984L40.6432 6.03211L39.9361 5.325ZM39.5361 5L38.5399 4.91337L38.494 5.4417L38.9055 5.77611L39.5361 5ZM54.1861 17.5L53.7086 16.6214L52.818 17.1054L53.3141 17.9894L54.1861 17.5ZM58.3111 24.85V25.85H60.0191L59.1832 24.3606L58.3111 24.85ZM46.2861 8.775V7.775H45.2709L45.2862 8.79015L46.2861 8.775ZM46.3361 13.925H45.3361V14.925H46.3361V13.925ZM53.1005 24.3929L49.8755 18.1179L48.0967 19.0321L51.3217 25.3071L53.1005 24.3929ZM48.9861 17.575H46.3111V19.575H48.9861V17.575ZM45.3112 18.5636C45.2863 20.7563 45.2364 22.8755 45.1865 24.799L47.1858 24.851C47.2358 22.9245 47.286 20.7937 47.3111 18.5864L45.3112 18.5636ZM46.1861 23.825H40.6611V25.825H46.1861V23.825ZM41.6611 24.825V5.175H39.6611V24.825H41.6611ZM40.8572 4.19442C40.6984 4.16264 40.5418 4.1677 40.464 4.1715C40.3602 4.17656 40.2465 4.18864 40.1342 4.20735C40.0247 4.2256 39.893 4.25403 39.7614 4.29896C39.6606 4.33339 39.4272 4.41971 39.229 4.61789L40.6432 6.03211C40.5646 6.11076 40.4929 6.1512 40.4644 6.16626C40.4314 6.18361 40.4101 6.19086 40.4077 6.19166C40.4043 6.19284 40.4225 6.18689 40.463 6.18014C40.5007 6.17386 40.5371 6.17031 40.5614 6.16912C40.5734 6.16854 40.5754 6.16888 40.5682 6.16866C40.5644 6.16854 40.5546 6.16816 40.5401 6.16679C40.5268 6.16555 40.5002 6.16262 40.465 6.15558L40.8572 4.19442ZM40.5667 4.54888L40.1667 4.22388L38.9055 5.77611L39.3055 6.10111L40.5667 4.54888ZM40.5324 5.08663C40.5043 5.40975 40.2367 5.41169 40.548 5.29469C40.8083 5.19688 41.2402 5.11638 41.8454 5.06519C43.046 4.96365 44.5687 5 46.0111 5V3C44.6536 3 42.9887 2.96135 41.6769 3.07231C41.0258 3.12737 40.3702 3.22499 39.8446 3.42249C39.37 3.60081 38.618 4.01525 38.5399 4.91337L40.5324 5.08663ZM46.0111 5H49.4611V3H46.0111V5ZM49.4611 5C51.6505 5 53.4084 5.65699 54.6092 6.77069C55.8008 7.87584 56.5361 9.51529 56.5361 11.675H58.5361C58.5361 9.03471 57.6215 6.83666 55.9693 5.3043C54.3263 3.78051 52.0468 3 49.4611 3V5ZM56.5361 11.675C56.5361 13.7165 55.6387 15.5724 53.7086 16.6214L54.6636 18.3786C57.3336 16.9276 58.5361 14.3335 58.5361 11.675H56.5361ZM53.3141 17.9894L57.4391 25.3394L59.1832 24.3606L55.0582 17.0106L53.3141 17.9894ZM58.3111 23.85H52.2111V25.85H58.3111V23.85ZM45.2862 8.79015C45.3113 10.4404 45.3361 12.1835 45.3361 13.925H47.3361C47.3361 12.1665 47.311 10.4096 47.286 8.75985L45.2862 8.79015ZM46.3361 14.925H48.9361V12.925H46.3361V14.925ZM48.9361 14.925C50.0659 14.925 51.0475 14.6421 51.7468 13.972C52.4527 13.2955 52.7111 12.3782 52.7111 11.45H50.7111C50.7111 12.0218 50.5571 12.342 50.363 12.528C50.1622 12.7204 49.7564 12.925 48.9361 12.925V14.925ZM52.7111 11.45C52.7111 10.464 52.3968 9.51565 51.6777 8.81502C50.9594 8.11508 49.953 7.775 48.7861 7.775V9.775C49.5693 9.775 50.0254 9.99742 50.282 10.2475C50.5379 10.4968 50.7111 10.8859 50.7111 11.45H52.7111ZM48.7861 7.775H46.2861V9.775H48.7861V7.775ZM71.9865 24.85L71.0971 25.3071L71.3761 25.85H71.9865V24.85ZM68.7615 18.575L69.6509 18.1179L69.3719 17.575H68.7615V18.575ZM66.0865 18.575V17.575H65.0978L65.0866 18.5636L66.0865 18.575ZM65.9615 24.825V25.825H66.9359L66.9612 24.851L65.9615 24.825ZM60.4365 24.825H59.4365V25.825H60.4365V24.825ZM60.4365 5.175H61.4365V4.35519L60.6326 4.19442L60.4365 5.175ZM59.7115 5.325L59.0809 6.10111L59.7809 6.66984L60.4186 6.03211L59.7115 5.325ZM59.3115 5L58.3153 4.91337L58.2693 5.4417L58.6809 5.77611L59.3115 5ZM73.9615 17.5L73.484 16.6214L72.5934 17.1054L73.0895 17.9894L73.9615 17.5ZM78.0865 24.85V25.85H79.7945L78.9586 24.3606L78.0865 24.85ZM66.0615 8.775V7.775H65.0463L65.0616 8.79015L66.0615 8.775ZM66.1115 13.925H65.1115V14.925H66.1115V13.925ZM72.8759 24.3929L69.6509 18.1179L67.8721 19.0321L71.0971 25.3071L72.8759 24.3929ZM68.7615 17.575H66.0865V19.575H68.7615V17.575ZM65.0866 18.5636C65.0617 20.7563 65.0118 22.8755 64.9619 24.799L66.9612 24.851C67.0112 22.9245 67.0614 20.7937 67.0865 18.5864L65.0866 18.5636ZM65.9615 23.825H60.4365V25.825H65.9615V23.825ZM61.4365 24.825V5.175H59.4365V24.825H61.4365ZM60.6326 4.19442C60.4738 4.16264 60.3172 4.1677 60.2394 4.1715C60.1355 4.17656 60.0219 4.18864 59.9096 4.20735C59.8001 4.2256 59.6684 4.25403 59.5368 4.29896C59.436 4.33339 59.2026 4.41971 59.0044 4.61789L60.4186 6.03211C60.34 6.11076 60.2683 6.1512 60.2397 6.16626C60.2068 6.18361 60.1855 6.19086 60.1831 6.19166C60.1796 6.19284 60.1979 6.18689 60.2384 6.18014C60.2761 6.17386 60.3125 6.17031 60.3368 6.16912C60.3488 6.16854 60.3508 6.16888 60.3436 6.16866C60.3398 6.16854 60.33 6.16816 60.3155 6.16679C60.3022 6.16555 60.2756 6.16262 60.2404 6.15558L60.6326 4.19442ZM60.3421 4.54888L59.9421 4.22388L58.6809 5.77611L59.0809 6.10111L60.3421 4.54888ZM60.3078 5.08663C60.2797 5.40975 60.012 5.41169 60.3234 5.29469C60.5837 5.19688 61.0156 5.11638 61.6208 5.06519C62.8214 4.96365 64.344 5 65.7865 5V3C64.429 3 62.7641 2.96135 61.4522 3.07231C60.8012 3.12737 60.1456 3.22499 59.6199 3.42249C59.1454 3.60081 58.3934 4.01525 58.3153 4.91337L60.3078 5.08663ZM65.7865 5H69.2365V3H65.7865V5ZM69.2365 5C71.4259 5 73.1838 5.65699 74.3846 6.77069C75.5762 7.87584 76.3115 9.51529 76.3115 11.675H78.3115C78.3115 9.03471 77.3969 6.83666 75.7447 5.3043C74.1017 3.78051 71.8222 3 69.2365 3V5ZM76.3115 11.675C76.3115 13.7165 75.4141 15.5724 73.484 16.6214L74.439 18.3786C77.109 16.9276 78.3115 14.3335 78.3115 11.675H76.3115ZM73.0895 17.9894L77.2145 25.3394L78.9586 24.3606L74.8336 17.0106L73.0895 17.9894ZM78.0865 23.85H71.9865V25.85H78.0865V23.85ZM65.0616 8.79015C65.0866 10.4404 65.1115 12.1835 65.1115 13.925H67.1115C67.1115 12.1665 67.0864 10.4096 67.0614 8.75985L65.0616 8.79015ZM66.1115 14.925H68.7115V12.925H66.1115V14.925ZM68.7115 14.925C69.8413 14.925 70.8229 14.6421 71.5222 13.972C72.2281 13.2955 72.4865 12.3782 72.4865 11.45H70.4865C70.4865 12.0218 70.3325 12.342 70.1384 12.528C69.9376 12.7204 69.5318 12.925 68.7115 12.925V14.925ZM72.4865 11.45C72.4865 10.464 72.1722 9.51565 71.4531 8.81502C70.7348 8.11508 69.7284 7.775 68.5615 7.775V9.775C69.3447 9.775 69.8008 9.99742 70.0574 10.2475C70.3133 10.4968 70.4865 10.8859 70.4865 11.45H72.4865ZM68.5615 7.775H66.0615V9.775H68.5615V7.775ZM84.5619 5.4L85.1445 6.21276L85.4463 5.99644L85.5338 5.6356L84.5619 5.4ZM85.8619 3.275L86.1315 2.31204L85.6072 2.16522L85.1993 2.526L85.8619 3.275ZM86.4869 3.45L87.4708 3.62888L87.6337 2.73265L86.7565 2.48703L86.4869 3.45ZM86.5119 4.3L85.528 4.47889L85.7451 5.67269L86.8755 5.23158L86.5119 4.3ZM92.6369 4.35L92.2266 5.26192L93.317 5.75264L93.6071 4.59254L92.6369 4.35ZM92.6869 3.45L92.4173 2.48703L91.5401 2.73265L91.703 3.62889L92.6869 3.45ZM93.3119 3.275L93.9158 2.47791L93.5202 2.17822L93.0423 2.31204L93.3119 3.275ZM94.7369 5.575L93.7505 5.7394L93.8162 6.13377L94.1357 6.37412L94.7369 5.575ZM89.5869 24.4C86.465 24.4 84.2473 23.388 82.8049 21.8452C81.3514 20.2906 80.5869 18.0917 80.5869 15.55H78.5869C78.5869 18.4833 79.4725 21.2094 81.344 23.2111C83.2265 25.2245 86.0089 26.4 89.5869 26.4V24.4ZM80.5869 15.55C80.5869 11.3767 82.578 8.0525 85.1445 6.21276L83.9793 4.58724C80.8959 6.7975 78.5869 10.7233 78.5869 15.55H80.5869ZM85.5338 5.6356C85.6828 5.0207 86.0186 4.47147 86.5245 4.024L85.1993 2.526C84.4052 3.22853 83.841 4.1293 83.5901 5.1644L85.5338 5.6356ZM85.5923 4.23796L86.2173 4.41296L86.7565 2.48703L86.1315 2.31204L85.5923 4.23796ZM85.503 3.27111C85.4223 3.7154 85.4683 4.15044 85.528 4.47889L87.4958 4.12111C87.4555 3.89956 87.4516 3.7346 87.4708 3.62888L85.503 3.27111ZM86.8755 5.23158C87.809 4.86728 88.71 4.675 89.5869 4.675V2.675C88.4138 2.675 87.2649 2.93272 86.1484 3.36842L86.8755 5.23158ZM89.5869 4.675C90.4392 4.675 91.3497 4.86734 92.2266 5.26192L93.0473 3.43808C91.9241 2.93265 90.7347 2.675 89.5869 2.675V4.675ZM93.6071 4.59254C93.7065 4.19496 93.7527 3.72178 93.6708 3.27111L91.703 3.62889C91.7211 3.72822 91.7174 3.90504 91.6668 4.10746L93.6071 4.59254ZM92.9565 4.41296L93.5815 4.23796L93.0423 2.31204L92.4173 2.48703L92.9565 4.41296ZM92.7081 4.07209C93.3337 4.54608 93.6434 5.09671 93.7505 5.7394L95.7233 5.4106C95.5304 4.25329 94.9401 3.25392 93.9158 2.47791L92.7081 4.07209ZM94.1357 6.37412C96.6256 8.24721 98.5869 11.5087 98.5869 15.55H100.587C100.587 10.8413 98.2982 7.00279 95.3381 4.77588L94.1357 6.37412ZM98.5869 15.55C98.5869 18.0898 97.8173 20.289 96.3602 21.8445C94.9139 23.3885 92.6954 24.4 89.5869 24.4V26.4C93.1534 26.4 95.9349 25.224 97.8199 23.2118C99.694 21.211 100.587 18.4852 100.587 15.55H98.5869ZM84.2869 15.375C84.2869 16.9043 84.6499 18.406 85.5282 19.5497C86.4349 20.7305 87.813 21.425 89.5869 21.425V19.425C88.3858 19.425 87.6139 18.982 87.1144 18.3316C86.5865 17.644 86.2869 16.6207 86.2869 15.375H84.2869ZM89.5869 21.425C91.3505 21.425 92.7267 20.729 93.635 19.5514C94.516 18.4092 94.8869 16.9081 94.8869 15.375H92.8869C92.8869 16.6169 92.5829 17.6408 92.0513 18.3299C91.5472 18.9835 90.7734 19.425 89.5869 19.425V21.425ZM94.8869 15.375C94.8869 13.3549 94.2794 11.5342 93.3441 10.1959C92.4287 8.88626 91.0871 7.9 89.5869 7.9V9.9C90.1867 9.9 90.9951 10.3262 91.7048 11.3416C92.3944 12.3283 92.8869 13.7451 92.8869 15.375H94.8869ZM89.5869 7.9C88.0651 7.9 86.7221 8.88223 85.8089 10.1989C84.879 11.5397 84.2869 13.3601 84.2869 15.375H86.2869C86.2869 13.7399 86.7698 12.3228 87.4524 11.3386C88.1517 10.3303 88.9587 9.9 89.5869 9.9V7.9ZM114.003 24.85L113.114 25.3071L113.393 25.85H114.003V24.85ZM110.778 18.575L111.668 18.1179L111.389 17.575H110.778V18.575ZM108.103 18.575V17.575H107.114L107.103 18.5636L108.103 18.575ZM107.978 24.825V25.825H108.952L108.978 24.851L107.978 24.825ZM102.453 24.825H101.453V25.825H102.453V24.825ZM102.453 5.175H103.453V4.35519L102.649 4.19442L102.453 5.175ZM101.728 5.325L101.098 6.10111L101.798 6.66984L102.435 6.03211L101.728 5.325ZM101.328 5L100.332 4.91337L100.286 5.4417L100.698 5.77611L101.328 5ZM115.978 17.5L115.501 16.6214L114.61 17.1054L115.106 17.9894L115.978 17.5ZM120.103 24.85V25.85H121.811L120.975 24.3606L120.103 24.85ZM108.078 8.775V7.775H107.063L107.078 8.79015L108.078 8.775ZM108.128 13.925H107.128V14.925H108.128V13.925ZM114.893 24.3929L111.668 18.1179L109.889 19.0321L113.114 25.3071L114.893 24.3929ZM110.778 17.575H108.103V19.575H110.778V17.575ZM107.103 18.5636C107.078 20.7563 107.028 22.8755 106.978 24.799L108.978 24.851C109.028 22.9245 109.078 20.7937 109.103 18.5864L107.103 18.5636ZM107.978 23.825H102.453V25.825H107.978V23.825ZM103.453 24.825V5.175H101.453V24.825H103.453ZM102.649 4.19442C102.49 4.16264 102.334 4.1677 102.256 4.1715C102.152 4.17656 102.039 4.18864 101.926 4.20735C101.817 4.2256 101.685 4.25403 101.553 4.29896C101.453 4.33339 101.219 4.41971 101.021 4.61789L102.435 6.03211C102.357 6.11076 102.285 6.1512 102.256 6.16626C102.223 6.18361 102.202 6.19086 102.2 6.19166C102.196 6.19284 102.215 6.18689 102.255 6.18014C102.293 6.17386 102.329 6.17031 102.353 6.16912C102.365 6.16854 102.367 6.16888 102.36 6.16866C102.356 6.16854 102.347 6.16816 102.332 6.16679C102.319 6.16555 102.292 6.16262 102.257 6.15558L102.649 4.19442ZM102.359 4.54888L101.959 4.22388L100.698 5.77611L101.098 6.10111L102.359 4.54888ZM102.324 5.08663C102.296 5.40975 102.029 5.41169 102.34 5.29469C102.6 5.19688 103.032 5.11638 103.637 5.06519C104.838 4.96365 106.361 5 107.803 5V3C106.446 3 104.781 2.96135 103.469 3.07231C102.818 3.12737 102.162 3.22499 101.637 3.42249C101.162 3.60081 100.41 4.01525 100.332 4.91337L102.324 5.08663ZM107.803 5H111.253V3H107.803V5ZM111.253 5C113.442 5 115.2 5.65699 116.401 6.77069C117.593 7.87584 118.328 9.51529 118.328 11.675H120.328C120.328 9.03471 119.413 6.83666 117.761 5.3043C116.118 3.78051 113.839 3 111.253 3V5ZM118.328 11.675C118.328 13.7165 117.431 15.5724 115.501 16.6214L116.456 18.3786C119.126 16.9276 120.328 14.3335 120.328 11.675H118.328ZM115.106 17.9894L119.231 25.3394L120.975 24.3606L116.85 17.0106L115.106 17.9894ZM120.103 23.85H114.003V25.85H120.103V23.85ZM107.078 8.79015C107.103 10.4404 107.128 12.1835 107.128 13.925H109.128C109.128 12.1665 109.103 10.4096 109.078 8.75985L107.078 8.79015ZM108.128 14.925H110.728V12.925H108.128V14.925ZM110.728 14.925C111.858 14.925 112.84 14.6421 113.539 13.972C114.245 13.2955 114.503 12.3782 114.503 11.45H112.503C112.503 12.0218 112.349 12.342 112.155 12.528C111.954 12.7204 111.548 12.925 110.728 12.925V14.925ZM114.503 11.45C114.503 10.464 114.189 9.51565 113.47 8.81502C112.751 8.11508 111.745 7.775 110.578 7.775V9.775C111.361 9.775 111.817 9.99742 112.074 10.2475C112.33 10.4968 112.503 10.8859 112.503 11.45H114.503ZM110.578 7.775H108.078V9.775H110.578V7.775Z" fill="#272727"/>
</svg>
