<svg xmlns="http://www.w3.org/2000/svg" width="24" height="24" viewBox="0 0 24 24" fill="none">
<path d="M3.26908 2.46355C3.16573 2.41179 3.04962 2.39098 2.93473 2.40363C2.81983 2.41628 2.71103 2.46185 2.62142 2.53486C2.5318 2.60787 2.46518 2.70521 2.42957 2.81518C2.39396 2.92515 2.39088 3.04307 2.42068 3.15475L4.21828 9.89635C4.24798 10.0075 4.30902 10.1078 4.39413 10.1853C4.47923 10.2627 4.58481 10.314 4.69828 10.3332L12.9243 11.7036C13.2591 11.76 13.2591 12.24 12.9243 12.2964L4.69948 13.6668C4.5858 13.6857 4.47996 13.7369 4.39463 13.8144C4.30929 13.8918 4.24807 13.9922 4.21828 14.1036L2.42068 20.8452C2.39088 20.9568 2.39396 21.0747 2.42957 21.1847C2.46518 21.2947 2.5318 21.392 2.62142 21.465C2.71103 21.5381 2.81983 21.5836 2.93473 21.5963C3.04962 21.6089 3.16573 21.5881 3.26908 21.5364L21.2691 12.5364C21.3686 12.4865 21.4523 12.4099 21.5108 12.3151C21.5693 12.2204 21.6002 12.1113 21.6002 12C21.6002 11.8886 21.5693 11.7795 21.5108 11.6848C21.4523 11.59 21.3686 11.5134 21.2691 11.4636L3.26908 2.46355Z" fill="#676767"/>
</svg>